<svg width="660" height="350" viewBox="0 0 660 350" fill="none" xmlns="http://www.w3.org/2000/svg">
<path d="M50.3085 156.152C46.0845 156.152 41.9565 155.384 37.9245 153.848C33.8925 152.248 30.3405 149.976 27.2685 147.032L34.8525 138.008C37.1565 140.056 39.6845 141.688 42.4365 142.904C45.2525 144.12 47.9725 144.728 50.5965 144.728C53.6685 144.728 56.0045 144.152 57.6045 143C59.2685 141.784 60.1005 140.12 60.1005 138.008C60.1005 136.664 59.7165 135.544 58.9485 134.648C58.2445 133.752 57.3165 133.016 56.1645 132.44C55.0765 131.864 53.2845 131.064 50.7885 130.04L42.5325 126.488C38.8205 124.952 35.7805 122.808 33.4125 120.056C31.0445 117.24 29.8605 113.72 29.8605 109.496C29.8605 106.104 30.7885 103.032 32.6445 100.28C34.5645 97.464 37.1885 95.256 40.5165 93.656C43.8445 91.992 47.5885 91.16 51.7485 91.16C55.3965 91.16 58.9805 91.896 62.5005 93.368C66.0205 94.776 69.0605 96.76 71.6205 99.32L64.9965 107.672C62.8205 105.944 60.6765 104.664 58.5645 103.832C56.4525 103 54.1805 102.584 51.7485 102.584C49.1245 102.584 47.0445 103.128 45.5085 104.216C43.9725 105.304 43.2045 106.808 43.2045 108.728C43.2045 110.072 43.5885 111.192 44.3565 112.088C45.1885 112.984 46.1805 113.72 47.3325 114.296C48.5485 114.872 50.4045 115.672 52.9005 116.696L60.9645 119.96C64.9965 121.624 68.1005 123.832 70.2765 126.584C72.4525 129.272 73.5405 132.728 73.5405 136.952C73.5405 140.472 72.6125 143.704 70.7565 146.648C68.9005 149.528 66.2125 151.832 62.6925 153.56C59.1725 155.288 55.0445 156.152 50.3085 156.152ZM93.9652 92.312H107.117V143.96H132.269V155H93.9652V92.312ZM152.784 92.312H165.936V155H152.784V92.312ZM190.696 92.312H211.624C219.176 92.312 225.16 93.88 229.576 97.016C234.056 100.088 236.296 105.144 236.296 112.184C236.296 119.096 234.024 124.312 229.48 127.832C224.936 131.352 219.112 133.112 212.008 133.112H203.848V155H190.696V92.312ZM211.144 122.648C219.336 122.648 223.432 119.16 223.432 112.184C223.432 108.856 222.376 106.456 220.264 104.984C218.216 103.512 215.048 102.776 210.76 102.776H203.848V122.648H211.144ZM274.99 156.152C270.766 156.152 266.638 155.384 262.606 153.848C258.574 152.248 255.022 149.976 251.95 147.032L259.534 138.008C261.838 140.056 264.366 141.688 267.118 142.904C269.934 144.12 272.654 144.728 275.278 144.728C278.35 144.728 280.686 144.152 282.286 143C283.95 141.784 284.782 140.12 284.782 138.008C284.782 136.664 284.398 135.544 283.63 134.648C282.926 133.752 281.998 133.016 280.846 132.44C279.758 131.864 277.966 131.064 275.47 130.04L267.214 126.488C263.502 124.952 260.462 122.808 258.094 120.056C255.726 117.24 254.542 113.72 254.542 109.496C254.542 106.104 255.47 103.032 257.326 100.28C259.246 97.464 261.87 95.256 265.198 93.656C268.526 91.992 272.27 91.16 276.43 91.16C280.078 91.16 283.662 91.896 287.182 93.368C290.702 94.776 293.742 96.76 296.302 99.32L289.678 107.672C287.502 105.944 285.358 104.664 283.246 103.832C281.134 103 278.862 102.584 276.43 102.584C273.806 102.584 271.726 103.128 270.19 104.216C268.654 105.304 267.886 106.808 267.886 108.728C267.886 110.072 268.27 111.192 269.038 112.088C269.87 112.984 270.862 113.72 272.014 114.296C273.23 114.872 275.086 115.672 277.582 116.696L285.646 119.96C289.678 121.624 292.782 123.832 294.958 126.584C297.134 129.272 298.222 132.728 298.222 136.952C298.222 140.472 297.294 143.704 295.438 146.648C293.582 149.528 290.894 151.832 287.374 153.56C283.854 155.288 279.726 156.152 274.99 156.152ZM329.156 103.352H311.684V92.312H359.875V103.352H342.308V155H329.156V103.352ZM413.418 155L400.938 131.768H392.586V155H379.434V92.312H401.514C408.81 92.312 414.602 93.816 418.89 96.824C423.178 99.768 425.322 104.664 425.322 111.512C425.322 115.992 424.298 119.768 422.25 122.84C420.202 125.848 417.354 128.088 413.706 129.56L428.202 155H413.418ZM392.586 121.304H400.362C404.33 121.304 407.338 120.504 409.386 118.904C411.434 117.24 412.458 114.776 412.458 111.512C412.458 108.376 411.466 106.136 409.482 104.792C407.498 103.448 404.458 102.776 400.362 102.776H392.586V121.304ZM447.253 92.312H486.037V103.352H460.405V117.08H482.197V128.12H460.405V143.96H486.997V155H447.253V92.312ZM538.445 139.352H518.765L514.541 155H501.101L521.069 92.312H536.717L556.589 155H542.669L538.445 139.352ZM535.757 129.176L534.029 122.744C533.261 119.928 532.109 115.512 530.573 109.496L528.749 102.392H528.365C526.445 110.648 524.749 117.432 523.277 122.744L521.549 129.176H535.757ZM573.328 92.312H587.824L598.288 121.112C599.248 123.864 600.08 126.488 600.784 128.984L602.032 132.92H602.416L604.144 127.448C605.168 123.992 605.84 121.88 606.16 121.112L616.336 92.312H630.832V155H618.832V130.136C618.832 126.616 619.248 120.92 620.08 113.048L620.464 109.304H620.08L614.992 123.992L605.68 149.432H598.192L588.88 123.992L583.888 109.304H583.504L583.888 113.048C584.72 120.92 585.136 126.616 585.136 130.136V155H573.328V92.312ZM344.343 197.352H326.871V186.312H375.063V197.352H357.495V249H344.343V197.352ZM394.622 186.312H433.406V197.352H407.774V211.08H429.566V222.12H407.774V237.96H434.366V249H394.622V186.312ZM490.518 249L478.038 225.768H469.686V249H456.534V186.312H478.614C485.91 186.312 491.702 187.816 495.99 190.824C500.278 193.768 502.422 198.664 502.422 205.512C502.422 209.992 501.398 213.768 499.35 216.84C497.302 219.848 494.454 222.088 490.806 223.56L505.302 249H490.518ZM469.686 215.304H477.462C481.43 215.304 484.438 214.504 486.486 212.904C488.534 211.24 489.558 208.776 489.558 205.512C489.558 202.376 488.566 200.136 486.582 198.792C484.598 197.448 481.558 196.776 477.462 196.776H469.686V215.304ZM558.337 249L545.857 225.768H537.505V249H524.353V186.312H546.433C553.729 186.312 559.521 187.816 563.809 190.824C568.097 193.768 570.241 198.664 570.241 205.512C570.241 209.992 569.217 213.768 567.169 216.84C565.121 219.848 562.273 222.088 558.625 223.56L573.121 249H558.337ZM537.505 215.304H545.281C549.249 215.304 552.257 214.504 554.305 212.904C556.353 211.24 557.377 208.776 557.377 205.512C557.377 202.376 556.385 200.136 554.401 198.792C552.417 197.448 549.377 196.776 545.281 196.776H537.505V215.304ZM620.702 233.352H601.022L596.798 249H583.358L603.326 186.312H618.974L638.846 249H624.926L620.702 233.352ZM618.014 223.176L616.286 216.744C615.518 213.928 614.366 209.512 612.83 203.496L611.006 196.392H610.622C608.702 204.648 607.006 211.432 605.534 216.744L603.806 223.176H618.014Z" fill="#080B25"/>
<rect x="30" y="203" width="281" height="14" fill="#5D68CC"/>
<rect x="30" y="203" width="281" height="14" fill="url(#paint0_linear)"/>
<rect x="30" y="229" width="281" height="14" fill="#5D68CC"/>
<rect x="30" y="229" width="281" height="14" fill="url(#paint1_linear)"/>
<defs>
<linearGradient id="paint0_linear" x1="311" y1="209.462" x2="30" y2="209.462" gradientUnits="userSpaceOnUse">
<stop stop-color="#34F2B9"/>
<stop offset="1" stop-color="#77DEFF" stop-opacity="0"/>
</linearGradient>
<linearGradient id="paint1_linear" x1="311" y1="235.462" x2="30" y2="235.462" gradientUnits="userSpaceOnUse">
<stop stop-color="#34F2B9"/>
<stop offset="1" stop-color="#77DEFF" stop-opacity="0"/>
</linearGradient>
</defs>
</svg>
